# xmcd
#
# Track frame offsets:
# 150
# 11212
# 27064
# 38134
# 51177
# 64774
# 80605
# 92026
# 106393
# 119085
#
# Disc length: 1750 seconds
#
#
# Revision: 0
# Processed by: cddbd v1.5.1PL2 Copyright (c) Steve Scherf et al.
# Submitted via: FreeRIP 2.944 
#
DISCID=8206d40a
DTITLE=Ronnie McDowell - The Best Of Ronnie McDowell
DYEAR=1990
DGENRE=Country
TTITLE0=It's Only Make Believe
TTITLE1=I Love You,I Love You, I Love You
TTITLE2=Sheet Music
TTITLE3=I'm Still Missing You
TTITLE4=All Tied Up
TTITLE5=Since I Don't Have You
TTITLE6=She's A Little Past Forty
TTITLE7=The King Is Gone
TTITLE8=American Music
TTITLE9=Watchin' Girls Go By
EXTD=
EXTT0=
EXTT1=
EXTT2=
EXTT3=
EXTT4=
EXTT5=
EXTT6=
EXTT7=
EXTT8=
EXTT9=
PLAYORDER=
